<?xml version="1.0"?><svg xmlns="http://www.w3.org/2000/svg" id="Logo" version="1.1" viewBox="0 0 341.500 50"><rect id="Hintergrund" height="50" fill="#e30613" width="341.500"/><g id="Wortmarke"><path id="D" d="M37,22.27v5.4c0,.89.13,3.14-1.28,3.74-1.81.76-3.13.51-5,.54H24.54V18h6.24c1.83,0,3.14-.22,4.95.55C37.14,19.13,37,21.38,37,22.27Zm.7,17.65c3.78,0,7.91.32,10.62-1s3.21-4.78,3.21-6.58V17.67c0-1.81-.48-5.27-3.21-6.58s-6.83-1-10.62-1H10V39.93H37.71" fill-rule="evenodd" fill="#ffed00"/><path id="L" d="M59.76,39.93V10.05H74.31V32h19v8H59.76" fill="#ffed00"/><path id="R" d="M114.39,15.33h6.29c2,0,3.52-.16,4.88.47A2.48,2.48,0,0,1,127,18.59a2.58,2.58,0,0,1-1.43,2.82c-1.45.63-2.5.46-4.88.46h-6.29V15.33ZM99.84,39.93V10.05h27.49c3.17,0,6.76-.26,9.34.94,2.92,1.37,4.51,2.94,4.51,6.22l0,.8c0,2.56-1.07,3.89-3.21,5.26s-4.71,1.57-9.69,1.57h6a11,11,0,0,1,4.87,1,4.11,4.11,0,0,1,2.07,3.32V39.93H126.62V30.47c0-.91.07-2.39-1.22-2.8s-2.29-.31-4.54-.36h-6.47V39.93H99.84" fill-rule="evenodd" fill="#ffed00"/><path id="G" d="M169.14,21.87h20.77V33.29a6.33,6.33,0,0,1-4.49,6c-3,.84-6,.65-9.34.65H162.2c-4.6.06-8.52.4-10.9-1.25a6.51,6.51,0,0,1-2.93-5.39V16.69c0-2.31,1.27-4,3-5.37,2.06-1.7,6.34-1.27,10.87-1.27h13.88c5.47,0,9.08,0,11.1,1.45C190.26,13.7,190,18,190,18H176.05c-.44-2.16-1.67-2.72-4.49-2.72H167.1c-3.06,0-4.2,1-4.18,2.82V31.36c0,1.59.23,2.29,1.47,2.89,1,.49,2.63.41,4.53.41h3.53c3.34,0,3.63-1.82,3.63-3.81V27.31h-6.94V21.87" fill="#ffed00"/></g><rect id="Trenner" x="200" y="5" width="1.82" height="40" fill="#ffed00"/><path fill="#ffed00" d="M215.594,20.727q0.442,0.034,1.1645,0.034t1.4365-0.136t1.207-0.629q1.19-1.19,1.19-3.468q0-1.462-0.51-2.448q-0.731-1.428-2.754-1.598q-0.323-0.017-0.748-0.017t-0.986,0.017l0,8.245z M212.925,10.493l4.063,0.017q3.723,0,5.202,2.091q1.122,1.564,1.122,3.842q0,2.686-1.3515,4.3945t-3.8165,1.8785q-0.493,0.034-1.394,0.034l-3.825,0l0-12.257z M229.602,18.704l-0.51-0.034l-0.17,0t-0.595,0.068q-1.496,0.238-1.496,1.36q0,0.476,0.238,0.731q0.425,0.493,1.0115,0.493t1.0455-0.493q0.34-0.408,0.408-0.918t0.068-1.207z M231.999,20.574q0,1.241,0.204,2.176l-2.278,0q-0.085-0.493-0.085-1.173q-0.969,1.377-2.567,1.377q-2.176,0-2.72-1.564q-0.17-0.493-0.17-1.122t0.306-1.19q1.003-1.836,4.182-1.836l0.731,0q0-0.799-0.102-1.088q-0.272-0.765-1.122-0.765q-0.629,0-0.969,0.476q-0.187,0.255-0.187,0.765l-2.465,0q0-1.343,0.9775-2.0315t2.465-0.6885t2.3715,0.476t1.1305,1.1305t0.2635,0.9945t0.017,0.612z M236.793,15.338q0.867-1.292,2.482-1.292q0.85,0,1.496,0.34t0.935,0.731q0.629,0.85,0.629,2.414l0,5.219l-2.499,0l0-5.134q0-1.19-0.595-1.649q-0.289-0.221-0.68-0.221q-0.765,0-1.258,0.4165t-0.493,1.3345l0.017,5.253l-2.533,0l0-12.274l2.499,0l0,4.862z M252.45,15.593q0.85-1.598,2.754-1.598q1.105,0,1.887,0.561q0.748,0.544,0.986,1.428q0.17,0.629,0.17,1.326l0,0.595l0,4.845l-2.533,0l0-5.049q0-0.867-0.187-1.241q-0.357-0.697-1.258-0.697q-1.428,0-1.513,1.717q-0.034,0.493-0.034,0.969l0,4.301l-2.533,0l0-5.1q0-0.799-0.153-1.139q-0.374-0.748-1.258-0.748q-1.037,0-1.394,0.748q-0.187,0.408-0.187,1.19l0,5.049l-2.533,0l0-6.97q0-0.595-0.085-1.615l2.431,0l0.085,1.105q0.391-0.527,0.731-0.748q0.833-0.544,1.734-0.544q0.918,0,1.411,0.1955t0.799,0.4505q0.408,0.357,0.68,0.969z M265.88,17.514q0-1.122-0.646-1.666q-0.306-0.255-0.782-0.255q-0.85,0-1.2495,0.5865t-0.4335,1.3345l3.111,0z M262.684,19.095q0,0.867,0.1955,1.3005t0.544,0.714t0.918,0.2805t0.986-0.238t0.6035-0.952l2.295,0q-0.068,0.561-0.1955,0.9605t-0.6205,0.9095q-0.969,1.003-3.009,1.003q-1.258,0-2.278-0.51q-0.408-0.204-0.748-0.561q-1.105-1.139-1.105-3.349q0-2.839,1.785-4.063q1.037-0.714,2.5585-0.714t2.686,1.139t1.1645,3.451q0,0.357-0.017,0.629l-5.763,0z M215.101,35.623q0,0.867,0.238,1.3175t0.6885,0.731t1.411,0.2805t1.5895-0.4675t0.629-1.2325t-0.578-1.105q-0.425-0.255-1.649-0.544q-2.431-0.578-3.5275-1.3855t-1.0965-2.4055t1.224-2.6775t3.638-1.0795q1.156,0,1.819,0.221q2.584,0.901,2.584,3.502l-2.533,0q-0.085-0.714-0.306-1.071q-0.493-0.799-1.547-0.799t-1.6065,0.4505t-0.5525,1.224t0.68,1.1475q0.323,0.187,0.8245,0.323t1.2325,0.3145t1.479,0.4165q2.669,0.799,2.669,3.06q0,1.717-1.3855,2.856t-3.655,1.139t-3.5105-0.833q-0.884-0.595-1.258-1.768q-0.187-0.612-0.187-1.615l2.686,0z M227.426,37.68q0.357,0.34,1.1645,0.34t1.275-0.782t0.4675-2.057q0-1.768-0.833-2.482q-0.34-0.289-0.765-0.289q-0.901,0-1.428,0.612q-0.68,0.782-0.68,2.346t0.799,2.312z M229.143,39.669q-1.496,0-2.397-1.105l0,4.284l-2.567,0l0-11.883l2.448,0l0.068,1.224q0.782-1.394,2.533-1.394t2.703,1.156t0.952,3.1025t-0.9775,3.281t-2.7625,1.3345z M234.651,33.073q0-0.833-0.119-2.142l2.363,0l0.051,1.649q0.323-0.748,0.748-1.088q0.731-0.578,1.904-0.578l0.272,0l0,2.261q-0.306-0.034-0.595-0.034q-1.207,0.017-1.717,0.612q-0.272,0.323-0.3315,0.7395t-0.0595,0.8245l0,4.233l-2.516,0l0-6.477z M245.973,34.314q0-1.122-0.646-1.666q-0.306-0.255-0.782-0.255q-0.85,0-1.2495,0.5865t-0.4335,1.3345l3.111,0z M242.777,35.895q0,0.867,0.1955,1.3005t0.544,0.714t0.918,0.2805t0.986-0.238t0.6035-0.952l2.295,0q-0.068,0.561-0.1955,0.9605t-0.6205,0.9095q-0.969,1.003-3.009,1.003q-1.258,0-2.278-0.51q-0.408-0.204-0.748-0.561q-1.105-1.139-1.105-3.349q0-2.839,1.785-4.063q1.037-0.714,2.5585-0.714t2.686,1.139t1.1645,3.451q0,0.357-0.017,0.629l-5.763,0z M255.425,34.314q0-1.122-0.646-1.666q-0.306-0.255-0.782-0.255q-0.85,0-1.2495,0.5865t-0.4335,1.3345l3.111,0z M252.229,35.895q0,0.867,0.1955,1.3005t0.544,0.714t0.918,0.2805t0.986-0.238t0.6035-0.952l2.295,0q-0.068,0.561-0.1955,0.9605t-0.6205,0.9095q-0.969,1.003-3.009,1.003q-1.258,0-2.278-0.51q-0.408-0.204-0.748-0.561q-1.105-1.139-1.105-3.349q0-2.839,1.785-4.063q1.037-0.714,2.5585-0.714t2.686,1.139t1.1645,3.451q0,0.357-0.017,0.629l-5.763,0z M261.307,30.965l1.581,6.477l1.819-6.477l2.771,0l1.802,6.477l1.683-6.477l2.499,0l-2.941,8.585l-2.737,0l-1.768-6.358l-1.802,6.358l-2.771,0l-2.805-8.585l2.669,0z M279.259,35.504l-0.51-0.034l-0.17,0t-0.595,0.068q-1.496,0.238-1.496,1.36q0,0.476,0.238,0.731q0.425,0.493,1.0115,0.493t1.0455-0.493q0.34-0.408,0.408-0.918t0.068-1.207z M281.656,37.374q0,1.241,0.204,2.176l-2.278,0q-0.085-0.493-0.085-1.173q-0.969,1.377-2.567,1.377q-2.176,0-2.72-1.564q-0.17-0.493-0.17-1.122t0.306-1.19q1.003-1.836,4.182-1.836l0.731,0q0-0.799-0.102-1.088q-0.272-0.765-1.122-0.765q-0.629,0-0.969,0.476q-0.187,0.255-0.187,0.765l-2.465,0q0-1.343,0.9775-2.0315t2.465-0.6885t2.3715,0.476t1.1305,1.1305t0.2635,0.9945t0.017,0.612z M283.883,27.259l2.516,0l0,12.291l-2.516,0l0-12.291z M290.632,35.4615q0,1.0965,0.4165,1.8615t1.3175,0.765q0.544,0,0.969-0.289q1.037-0.697,1.037-2.703q0-1.275-0.5015-1.938t-1.2495-0.663t-1.122,0.3315t-0.6205,0.935t-0.2465,1.7z M294.287,32.019l0-4.743l2.533,0l0,10.88q0,0.918,0.068,1.394l-2.55,0l-0.068-1.241q-0.136,0.238-0.306,0.476t-0.7055,0.5865t-1.5215,0.3485q-1.734,0-2.6945-1.122t-0.9605-3.179t1.037-3.315t2.686-1.258t2.482,1.173z M308.941,34.314q0-1.122-0.646-1.666q-0.306-0.255-0.782-0.255q-0.85,0-1.2495,0.5865t-0.4335,1.3345l3.111,0z M305.745,35.895q0,0.867,0.1955,1.3005t0.544,0.714t0.918,0.2805t0.986-0.238t0.6035-0.952l2.295,0q-0.068,0.561-0.1955,0.9605t-0.6205,0.9095q-0.969,1.003-3.009,1.003q-1.258,0-2.278-0.51q-0.408-0.204-0.748-0.561q-1.105-1.139-1.105-3.349q0-2.839,1.785-4.063q1.037-0.714,2.5585-0.714t2.686,1.139t1.1645,3.451q0,0.357-0.017,0.629l-5.763,0z M313.327,37.289l2.159,0l0,2.261l-2.159,0l0-2.261z M319.872,27.31l3.213,9.639l3.23-9.639l2.601,0l-4.522,12.24l-2.873,0l-4.522-12.24l2.873,0z M328.032,37.289l2.159,0l0,2.261l-2.159,0l0-2.261z"/></svg>